<svg width="21" height="29" viewBox="0 0 21 29" fill="none" xmlns="http://www.w3.org/2000/svg">
<g clip-path="url(#clip0_1_557)">
<path d="M0.822205 22.2937L0.981579 22.079L8.50033 8.29127L8.51627 8.14537L5.2022 2.12787C5.14153 2.01783 5.0466 1.92901 4.93085 1.87399C4.81509 1.81897 4.68437 1.80053 4.55717 1.82127C4.42998 1.84202 4.31275 1.9009 4.22207 1.98958C4.13139 2.07827 4.07186 2.19227 4.05189 2.31546L0.822205 22.2937Z" fill="#FFC24A"/>
<path d="M0.916016 22.1305L1.03602 21.904L8.47695 8.25948L5.17133 2.21842C5.11682 2.11336 5.02855 2.02821 4.91977 1.97571C4.81099 1.92321 4.68753 1.9062 4.56791 1.92723C4.44828 1.94825 4.33892 2.00618 4.25622 2.09233C4.17351 2.17849 4.12191 2.28823 4.10914 2.40511L0.916016 22.1305Z" fill="#FFA712"/>
<path d="M10.9326 12.6967L13.4001 10.2498L10.9316 5.69953C10.8773 5.6016 10.7965 5.51975 10.6979 5.46269C10.5992 5.40562 10.4864 5.37549 10.3715 5.37549C10.2565 5.37549 10.1437 5.40562 10.0451 5.46269C9.94643 5.51975 9.86564 5.6016 9.81131 5.69953L8.49225 8.1301V8.33763L10.9326 12.6967Z" fill="#F4BD62"/>
<path d="M10.888 12.5968L13.2871 10.2224L10.888 5.79992C10.8488 5.7042 10.7817 5.62149 10.6949 5.56178C10.6081 5.50207 10.5053 5.4679 10.3989 5.4634C10.2925 5.4589 10.1869 5.48425 10.0951 5.53641C10.0032 5.58856 9.92894 5.66528 9.88117 5.75733L8.55555 8.23049L8.51617 8.35646L10.888 12.5968Z" fill="#FFA50E"/>
<path d="M0.824219 22.2947L0.896406 22.2241L1.15797 22.1216L10.7767 12.858L10.8986 12.5371L8.49953 8.11646L0.824219 22.2947Z" fill="#F6820C"/>
<path d="M11.2397 26.9665L19.9472 22.2731L17.4591 7.4731C17.4412 7.36877 17.394 7.27121 17.3226 7.19112C17.2511 7.11104 17.1583 7.05153 17.0541 7.01913C16.95 6.98673 16.8386 6.9827 16.7323 7.00746C16.6259 7.03223 16.5287 7.08485 16.4513 7.15954L0.822205 22.2939L9.47814 26.9656C9.74725 27.1108 10.0503 27.187 10.3585 27.187C10.6666 27.187 10.9697 27.1108 11.2388 26.9656" fill="#FDE068"/>
<path d="M19.8676 22.234L17.4001 7.54551C17.3957 7.44572 17.3608 7.34942 17.2998 7.2688C17.2388 7.18818 17.1545 7.12687 17.0574 7.09262C16.9604 7.05837 16.855 7.05272 16.7546 7.07639C16.6542 7.10007 16.5634 7.15199 16.4935 7.2256L0.916016 22.2657L9.47633 26.8876C9.74329 27.0316 10.0439 27.1071 10.3496 27.1071C10.6553 27.1071 10.9559 27.0316 11.2229 26.8876L19.8676 22.234Z" fill="#FCCA3F"/>
<path d="M11.2397 26.825C10.9706 26.9701 10.6676 27.0463 10.3594 27.0463C10.0512 27.0463 9.74818 26.9701 9.47908 26.825L0.893454 22.223L0.822205 22.2937L9.47814 26.9654C9.74725 27.1106 10.0503 27.1868 10.3585 27.1868C10.6666 27.1868 10.9697 27.1106 11.2388 26.9654L19.9472 22.2729L19.9256 22.146L11.2397 26.825Z" fill="#EEAB37"/>
</g>
<defs>
<clipPath id="clip0_1_557">
<rect width="20" height="29" fill="white" transform="translate(0.384766)"/>
</clipPath>
</defs>
</svg>
