<svg width="106" height="149" viewBox="0 0 106 149" fill="none" xmlns="http://www.w3.org/2000/svg">
<g clip-path="url(#clip0_1_350)">
<path d="M26.6921 148.727C41.1339 148.727 52.8548 137.657 52.8548 124.017V99.308H26.6921C12.2502 99.308 0.529297 110.378 0.529297 124.017C0.529297 137.657 12.2502 148.727 26.6921 148.727Z" fill="#0ACF83"/>
<path d="M0.529297 74.5986C0.529297 60.959 12.2502 49.8893 26.6921 49.8893H52.8548V99.3079H26.6921C12.2502 99.3079 0.529297 88.2381 0.529297 74.5986Z" fill="#A259FF"/>
<path d="M0.529297 25.1799C0.529297 11.5404 12.2502 0.470581 26.6921 0.470581H52.8548V49.8892H26.6921C12.2502 49.8892 0.529297 38.8194 0.529297 25.1799Z" fill="#F24E1E"/>
<path d="M52.8544 0.470581H79.0171C93.459 0.470581 105.18 11.5404 105.18 25.1799C105.18 38.8194 93.459 49.8892 79.0171 49.8892H52.8544V0.470581Z" fill="#FF7262"/>
<path d="M105.18 74.5986C105.18 88.2381 93.459 99.3079 79.0171 99.3079C64.5753 99.3079 52.8544 88.2381 52.8544 74.5986C52.8544 60.959 64.5753 49.8893 79.0171 49.8893C93.459 49.8893 105.18 60.959 105.18 74.5986Z" fill="#1ABCFE"/>
</g>
<defs>
<clipPath id="clip0_1_350">
<rect width="104.651" height="148.256" fill="white" transform="translate(0.529297 0.470581)"/>
</clipPath>
</defs>
</svg>
