<svg width="40" height="40" viewBox="0 0 40 40" fill="none" xmlns="http://www.w3.org/2000/svg">
<path fill-rule="evenodd" clip-rule="evenodd" d="M6.37182 8.02526L7.53253 6.61001L7.55761 6.73421C7.88508 8.3563 8.05002 10.0065 8.05002 11.6607V13.2746L8.36123 12.2469C8.66893 11.2308 8.79747 10.1697 8.74119 9.11028L8.5675 5.84102L11.4137 3.0214L11.8961 2.60319C12.9363 1.70156 14.1968 1.08578 15.552 0.817261C16.7538 0.579147 17.9847 0.519517 19.2042 0.640329L19.9522 0.714432L20.8135 0.856649C21.1569 0.913353 21.347 1.2831 21.1913 1.5916L20.7572 2.4516C20.3979 3.16345 20.2109 3.9484 20.2109 4.74428V5.50848C20.2109 5.89958 20.2593 6.28921 20.3551 6.66864L20.4606 7.08677C20.6348 7.77713 21.0214 8.39676 21.5667 8.85987C22.1945 9.39294 22.9941 9.68596 23.8209 9.68596H24.092L23.5746 10.4549L23.4991 10.567C23.2109 10.9954 23.0571 11.4987 23.0571 12.0135C23.0571 12.6719 23.2305 13.319 23.5603 13.8906L23.7451 14.211C23.9754 14.6103 24.2583 14.9773 24.5865 15.3024L25.0705 15.7819C25.6154 16.3217 26.2981 16.7047 27.0457 16.8898C27.6564 17.0411 28.2934 17.0561 28.9106 16.9338L29.2669 16.8632L29.6758 17.9436C29.9179 18.583 30.2953 19.1637 30.7827 19.6465C31.1497 20.0101 31.5735 20.3127 32.0377 20.5426L33.9242 21.4771L31.2421 23.521C30.7899 23.8656 30.2919 24.1469 29.7622 24.3568L27.9732 25.0657H28.7822C29.446 25.0657 30.1054 24.9597 30.7351 24.7518C31.1341 24.62 31.5118 24.4317 31.8564 24.1927L33.2561 23.2221C33.7007 22.9138 34.1172 22.5676 34.5009 22.1874L35.0664 21.6273C35.1634 21.5311 35.2951 21.4771 35.4323 21.4771H36.5938C36.8777 21.4771 37.1552 21.3939 37.3914 21.2379C37.6613 21.0596 37.9785 20.9645 38.3029 20.9645H38.5379C38.7049 20.9645 38.8403 21.0986 38.8403 21.2641V21.9898V23.9865C38.8403 24.702 38.7324 25.4134 38.52 26.0972L38.0414 27.6381C37.8845 28.1432 37.6718 28.6295 37.4072 29.0883L35.7354 31.9866L33.7847 34.4989C33.3624 35.0428 32.8636 35.5238 32.3035 35.9274L31.0346 36.8416C30.5553 37.1869 29.9896 37.3953 29.399 37.4441L27.8429 37.5725C27.4418 37.6057 27.0871 37.8436 26.907 38.2003C26.7638 38.4841 26.494 38.6846 26.1788 38.7414L23.8333 39.1638L20.7284 39.4202H19.0273C18.2664 39.4202 17.5079 39.3346 16.7665 39.1651C15.2732 38.8237 13.8259 38.3081 12.4551 37.6291L11.8873 37.3478C10.8829 36.8503 9.91686 36.2803 8.99694 35.6423L7.79128 34.8062L7.14179 34.2272C5.86121 33.0854 4.80834 31.7156 4.03786 30.189C3.43959 29.0037 3.04914 27.7261 2.8832 26.411L2.61643 24.2967L3.00829 24.8144C3.26302 25.1508 3.56847 25.4465 3.91394 25.6909L5.20385 26.6037L5.03284 26.1802C4.80248 25.6096 4.51294 25.0643 4.16888 24.5531L2.99458 23.3897C2.2402 22.6424 1.713 21.7 1.47311 20.6702L1.25194 19.7208C1.12826 19.1898 1.12826 18.6379 1.25194 18.1069L1.75207 15.9599C1.81065 15.7084 1.89646 15.4639 2.008 15.2306L2.67339 13.839C3.66679 11.7614 4.90849 9.80948 6.37182 8.02526ZM13.6166 7.98594C13.3913 7.29459 13.5396 6.50812 14.0681 5.93792L14.3706 5.61161L14.4481 5.53483C15.2382 4.75213 16.2601 4.24015 17.3647 4.07363C18.145 3.9929 18.8471 4.54529 18.9444 5.31647L18.9508 5.36759C19.002 5.77336 18.9984 6.18408 18.94 6.58889L18.8846 6.97306C18.8085 7.50069 18.6219 8.00672 18.3368 8.45869L18.0525 8.90936C17.6936 9.47828 17.0641 9.8239 16.3869 9.82393C16.0839 9.82395 15.7851 9.75452 15.5137 9.62111C15.5272 9.64276 15.5405 9.66438 15.5535 9.68597C15.8016 10.0956 16.7326 10.3726 17.3647 10.455C17.5641 10.4809 17.7149 10.4905 17.8539 10.4994C18.1557 10.5186 18.4018 10.5342 18.968 10.7063C18.5159 10.7959 17.801 10.8631 17.1111 10.7732L17.0876 10.7701C16.4089 10.6817 15.4047 10.551 15.0361 9.9423L15.0002 9.88298C14.8245 9.59177 14.6274 9.26512 14.317 8.98081C14.2697 8.94399 14.224 8.90513 14.18 8.86434C14.0587 8.76873 13.9217 8.67975 13.7649 8.60081L13.5769 8.50599C12.8416 8.13486 11.5698 7.4929 11.1549 7.37901C11.2866 7.41515 11.5057 7.46176 11.7692 7.51782C12.322 7.63542 13.0701 7.79459 13.6166 7.98594ZM19.6934 21.9582V22.2419C19.6934 22.5901 19.833 22.924 20.0815 23.1702C20.33 23.4164 20.6671 23.5547 21.0185 23.5547H21.3528C21.624 23.5547 21.8927 23.5034 22.1446 23.4036L22.3147 23.3362C22.7982 23.1446 23.2117 22.8122 23.5006 22.383L23.6692 22.1323C23.94 21.73 24.0383 21.2377 23.9426 20.7636C23.8713 20.4107 23.6962 20.0866 23.4393 19.8321L23.3472 19.7408C22.9958 19.3927 22.5191 19.1971 22.0221 19.1971C21.5251 19.1971 21.0484 19.3927 20.697 19.7408L20.4985 19.9375C20.1423 20.2904 19.8994 20.7399 19.8006 21.2293L19.7326 21.5664C19.7065 21.6954 19.6934 21.8266 19.6934 21.9582ZM15.2948 35.718V35.8274C15.2948 36.1755 15.4344 36.5094 15.6829 36.7556C15.9314 37.0018 16.2685 37.1401 16.6199 37.1401H16.9541C17.2254 37.1401 17.4941 37.0889 17.746 36.9891L18.1829 36.8159C18.4939 36.6927 18.7648 36.487 18.9658 36.2216C19.2652 35.826 19.3883 35.3262 19.3062 34.8384L19.292 34.7543C19.2175 34.3113 18.9689 33.9104 18.6063 33.6409C18.3067 33.4184 17.9385 33.2952 17.5641 33.2952C17.1051 33.2952 16.6649 33.4758 16.3404 33.7973L16.1036 34.0319C15.9107 34.223 15.7501 34.4438 15.628 34.6856L15.4628 35.0129C15.3523 35.2318 15.2948 35.4733 15.2948 35.718ZM7.87182 23.8302L8.0054 23.4314C8.03509 23.3428 8.07115 23.2564 8.1133 23.1729C8.28008 22.8424 8.53513 22.5706 8.84416 22.3822C7.27887 22.5719 6.4487 23.2687 6.19952 23.6636C6.7026 22.8662 8.0917 21.3687 11.4764 21.9975C11.5863 22.0247 11.7387 22.0257 11.9332 21.9933C12.3457 21.9248 12.8617 21.7216 13.3643 21.475C13.8625 21.2305 14.3279 20.9532 14.6338 20.7512C14.3897 21.2237 14.0741 21.6988 13.5939 21.9344C13.2348 22.1106 12.849 22.2758 12.4829 22.3872C13.3458 23.1782 14.4235 23.6668 15.4631 23.9537C16.6341 24.2768 17.7362 24.3382 18.3832 24.2973C18.2319 24.3069 18.0475 24.328 17.8391 24.3519C17.0794 24.439 16.0002 24.5628 15.036 24.2967C14.2823 24.0888 13.6107 23.8366 12.9704 23.4229C12.9985 23.5586 13.0106 23.6975 13.0061 23.8367L13.0031 23.9326C12.9799 24.6605 12.603 25.3325 11.9914 25.7364L11.8883 25.8045C11.5759 26.0108 11.2207 26.1453 10.8489 26.1979L10.1826 26.2922C9.80253 26.346 9.41483 26.2999 9.05833 26.1587L8.94224 26.1127C8.53334 25.9506 8.19607 25.6496 7.99089 25.2636C7.75604 24.8217 7.71304 24.3041 7.87182 23.8302ZM29.4621 28.931L29.6393 28.931C29.9754 28.931 30.307 29.0085 30.6076 29.1575L31.3487 29.5245C31.5834 29.6407 31.7982 29.7943 31.9836 29.9782C32.5767 30.5661 32.8092 31.3978 32.6465 32.1757C33.1751 31.7763 33.7302 31.4291 34.4417 31.2176C33.8393 31.6819 33.3754 32.1517 32.931 32.6018C32.1406 33.4024 31.4122 34.1402 30.076 34.6716C29.8695 34.7582 29.6574 34.8325 29.4408 34.8938L29.4255 34.8981C29.3161 34.9313 29.2032 34.9633 29.0865 34.994L28.7495 35.0894L28.6971 35.1024C28.6012 35.1262 28.5054 35.1417 28.4105 35.1496C27.9326 35.2449 27.3983 35.323 26.7959 35.3814C24.54 36.5076 22.4335 37.6315 21.1134 38.3623C21.5774 38.1054 22.0956 37.7254 22.6751 37.3005C23.5121 36.6867 24.4771 35.9791 25.5921 35.4127C25.3108 35.4347 24.9672 35.4273 24.6256 35.42L24.625 35.42C24.4552 35.4163 24.2859 35.4127 24.1251 35.4127C23.8662 35.4127 22.6207 35.4506 22.1998 35.5882C22.6414 35.4439 23.3899 35.2379 24.2124 35.0845C25.0046 34.9368 25.8837 34.8343 26.6284 34.891C26.8398 34.8757 27.0427 34.8559 27.2377 34.832C26.829 34.5461 26.5409 34.0912 26.4913 33.5503C26.4447 33.0429 26.4933 32.5312 26.6346 32.0413L26.6523 31.9799C26.8411 31.3253 27.1593 30.7143 27.5884 30.1825L28.0587 29.5996C28.3997 29.1771 28.916 28.9311 29.4621 28.931ZM7.04549 15.5918L6.99807 15.7333C6.93882 15.9102 6.95486 16.1033 7.0425 16.2682C7.11907 16.4123 7.24492 16.5246 7.39751 16.5851L7.44083 16.6022C7.57386 16.6549 7.71854 16.6721 7.86038 16.652L8.10901 16.6169C8.24774 16.5972 8.38027 16.5471 8.49687 16.47L8.53532 16.4447C8.76357 16.2939 8.9042 16.0432 8.91286 15.7715L8.91358 15.7489C8.91669 15.6514 8.90001 15.5542 8.86453 15.4632C8.76689 15.2128 8.53821 15.0358 8.2693 15.0025L8.13002 14.9853C8.00037 14.9692 7.86878 14.9793 7.74314 15.0148L7.61473 15.0512C7.38722 15.1155 7.19744 15.2716 7.09163 15.4812C7.0736 15.5169 7.05818 15.5539 7.04549 15.5918ZM20.4687 12.3079C20.4381 12.7265 19.7949 13.7335 19.1569 14.0969C18.4735 14.4863 17.183 14.4487 15.0361 14.0436C17.3647 14.8126 18.5761 15.0192 19.4149 14.5414C20.267 14.0559 20.4696 13.5309 20.4696 12.7619L20.4687 12.3079ZM20.4687 12.3079C20.4703 12.2868 20.4702 12.2672 20.4686 12.2493L20.4687 12.3079ZM21.0145 29.2452C21.3451 29.0331 21.6276 28.7546 21.8699 28.4471C19.7177 29.9977 17.9093 29.0877 17.289 28.4731C17.5104 28.9324 17.7815 29.3856 18.2008 29.6796C18.7772 30.0837 19.5322 30.1961 21.0145 29.2452ZM6.15888 29.9648C6.13147 30.3639 6.1132 30.63 6.1492 30.9169C6.15768 30.9845 6.16639 31.0539 6.17675 31.1257C6.21087 31.3623 6.26471 31.619 6.40522 31.8881C6.54602 32.1578 6.76576 32.4249 7.11217 32.6995C7.71196 33.1748 8.42002 33.3468 9.05776 33.5016L9.05834 33.5018L9.0589 33.5019C9.16672 33.5281 9.27253 33.5538 9.37546 33.5804C9.53543 33.6217 9.69471 33.6552 9.85446 33.6889C10.4224 33.8083 10.9966 33.9291 11.629 34.4078C11.0566 33.5573 10.1876 33.294 9.42858 33.0978C9.31244 33.0678 9.19793 33.0397 9.08519 33.012C8.44497 32.8548 7.93888 32.6981 7.43544 32.2991C7.135 32.061 6.96662 31.8475 6.86486 31.6526C6.76279 31.4571 6.71961 31.2652 6.68904 31.0532C6.68053 30.9943 6.67314 30.9331 6.66551 30.87C6.61874 30.4833 6.49756 30.1923 6.18709 29.5259C6.17777 29.6899 6.16783 29.8345 6.15888 29.9648ZM14.1628 28.3255C14.0683 28.2521 13.9737 28.1786 13.8785 28.1063C13.4305 27.7659 12.9051 27.4964 12.4486 27.6056C12.935 27.4892 13.3873 27.4669 13.8012 27.5806C14.4828 27.7679 14.8703 28.4365 15.1981 29.0574C14.8317 28.8451 14.4972 28.5852 14.1628 28.3255ZM17.7884 17.8595C17.3943 17.7021 17.0001 17.5445 16.5885 17.4415C17.0776 17.9477 17.6373 18.4833 18.3446 18.4755C18.7741 18.4708 19.2023 18.3249 19.6369 18.0792C19.2291 18.3098 18.6488 18.1955 18.1229 17.9919C18.0113 17.9487 17.9002 17.9042 17.789 17.8598L17.7884 17.8595ZM13.4836 12.2493C13.3192 12.575 13.0589 12.8102 12.7996 13.0446C12.5258 13.292 12.253 13.5385 12.095 13.8896C12.0407 14.0104 11.9778 14.162 11.9029 14.3523C11.9029 14.0912 11.8612 13.8408 11.8221 13.6058C11.8086 13.5252 11.7955 13.4462 11.7845 13.3693C11.6653 12.539 12.6371 12.2493 13.4836 12.2493ZM12.7752 36.6446C12.4494 36.6058 12.1577 36.5711 11.9311 36.2919C12.6514 35.8511 13.5859 35.6672 13.7489 36.4901C13.7926 36.7109 13.8552 36.952 14.0011 37.1861C13.6018 36.8881 13.3752 36.7591 13.2243 36.7198C13.0697 36.6797 12.9191 36.6618 12.7752 36.6446ZM21.6602 2.86724L21.6609 2.86483C21.6962 2.74327 21.7306 2.62438 21.7633 2.50876C21.3202 5.84104 23.2296 8.23345 24.3508 8.66066C20.1919 7.93359 21.0446 4.9913 21.6602 2.86724ZM24.8682 9.68598C24.1782 10.6259 23.5751 12.4423 24.8682 14.0436C25.8864 15.3045 26.6542 15.573 29.6353 15.3373C29.6941 15.3366 29.7442 15.3325 29.7843 15.3252C29.734 15.3294 29.6843 15.3334 29.6353 15.3373C28.9984 15.3443 27.3243 14.9387 25.9032 13.5309C24.2913 11.934 24.5662 10.455 24.8682 9.68598ZM37.2878 20.1955C34.4417 20.4518 29.7843 20.1955 30.5605 15.5816C30.672 15.7657 30.7782 15.9816 30.8944 16.2178C31.587 17.6258 32.6349 19.7565 37.2878 20.1955Z" fill="#B55119"/>
</svg>
