<svg width="48" height="48" viewBox="0 0 48 48" fill="none" xmlns="http://www.w3.org/2000/svg">
<circle cx="24" cy="24" r="24" fill="#FF4A4A"/>
<g clip-path="url(#clip0_130_641)">
<path d="M33.5287 20.5319C32.0152 18.0942 29.4824 16.2659 26.4553 15.6274C26.3936 15.9176 26.3627 16.2368 26.3627 16.5561C26.3627 18.0071 27.104 19.313 28.216 20.1256C28.216 20.1256 28.216 20.1256 28.2468 20.1256C28.3086 20.1546 28.3704 20.2127 28.4013 20.2417C30.131 21.4896 31.2739 23.463 31.2739 25.6685C31.2739 29.4412 28.0306 32.4884 24.0152 32.4884C19.9997 32.4884 16.7565 29.4412 16.7565 25.6685C16.7565 23.492 17.8376 21.5476 19.5364 20.2997C19.5364 20.2997 19.5364 20.2997 19.5673 20.2997C19.66 20.2417 19.7526 20.1546 19.8453 20.0966C20.9573 19.255 21.6677 17.9781 21.6677 16.527C21.6677 16.2078 21.6368 15.8886 21.575 15.5984C18.548 16.2368 16.0152 18.0651 14.5017 20.5029C13.575 22.0119 13.019 23.7822 13.019 25.6685C13.019 31.3565 17.9302 35.9998 24.0152 35.9998C30.0692 35.9998 34.9804 31.3856 34.9804 25.6685C34.9804 23.8112 34.4553 22.041 33.5287 20.5319Z" fill="white"/>
<path d="M24.0151 28.948C25.8575 28.948 27.351 27.5448 27.351 25.8138C27.351 24.0828 25.8575 22.6796 24.0151 22.6796C22.1727 22.6796 20.6792 24.0828 20.6792 25.8138C20.6792 27.5448 22.1727 28.948 24.0151 28.948Z" fill="white"/>
<path d="M21.668 16.5562C21.668 18.0073 20.9575 19.2842 19.8456 20.1258C19.7529 20.1838 19.6602 20.2709 19.5676 20.3289C19.5676 20.3289 19.5676 20.3289 19.5367 20.3289C18.7645 20.8222 17.8378 21.1125 16.8185 21.1125C15.9537 21.1125 15.1815 20.9093 14.471 20.532C13.0193 19.7485 12 18.2684 12 16.5562C12 14.0314 14.1622 12 16.8494 12C19.166 12 21.112 13.5671 21.5753 15.6276C21.6371 15.9178 21.668 16.237 21.668 16.5562Z" fill="white"/>
<path d="M36 16.5562C36 18.2684 34.9807 19.7485 33.4981 20.532C32.8185 20.8803 32.0154 21.0834 31.1506 21.0834C30.1004 21.0834 29.1428 20.7642 28.3706 20.2418C28.3089 20.2128 28.2471 20.1548 28.2162 20.1258C28.2162 20.1258 28.2162 20.1258 28.1853 20.1258C27.0425 19.2842 26.332 18.0073 26.332 16.5562C26.332 16.237 26.3629 15.9178 26.4247 15.6276C26.888 13.5671 28.834 12 31.1815 12C33.8378 12 36 14.0314 36 16.5562Z" fill="white"/>
</g>
<defs>
<clipPath id="clip0_130_641">
<rect width="24" height="24" fill="white" transform="translate(12 12)"/>
</clipPath>
</defs>
</svg>
