<svg xmlns="http://www.w3.org/2000/svg" viewBox="0 0 24 24" width="25" height="24">
    <style type="text/css">
        .st0 {
            fill: #9187F6;
        }

        .st1 {
            fill: #8313DD;
        }
    </style>
    <path class="st0" d="M39.3,68.3c0.6-0.5,1.4-0.5,2,0.1c1.4,1.4,2.9,2.9,4.3,4.3l-2.1,2.2l-2.7-2.7c-0.3-0.3-0.7-0.3-1.1-0.1
	c0,0,0,0-0.1,0.1c-3.2,3.1-6.3,6.3-9.5,9.5c-0.3,0.3-0.4,0.8-0.1,1.1c0,0,0.1,0.1,0.1,0.1c3,3,6,6,9,9c0.2,0.3,0.5,0.5,0.8,0.7
	c0.3,0.1,0.7,0,0.9-0.2l2.6-2.6l2.1,2.2l-4,4c-0.3,0.3-0.6,0.5-0.9,0.7c-0.6,0.2-1.2,0-1.6-0.4c-4.2-4.2-8.5-8.5-12.7-12.7
	c-0.6-0.6-0.6-1.6,0-2.2c0,0,0,0,0,0C30.7,76.9,35,72.6,39.3,68.3L39.3,68.3z" />
    <path class="st1" d="M49.9,68.3c0.6-0.6,1.6-0.6,2.2,0c0,0,0,0,0,0l12.7,12.7c0.4,0.4,0.6,1,0.4,1.6c-0.2,0.4-0.5,0.7-0.8,1
	l-11.9,12c-0.3,0.3-0.6,0.6-1,0.8c-0.6,0.2-1.2,0-1.6-0.4l-4.3-4.2l-2.1-2.1l-6.4-6.4c-0.6-0.6-0.6-1.6,0-2.1c0,0,0,0,0,0l6.3-6.3
	l2.2-2.2C47,71.2,48.5,69.8,49.9,68.3L49.9,68.3z" />
</svg>